<svg width="1400" height="620" viewBox="0 0 1400 620" fill="none" xmlns="http://www.w3.org/2000/svg">
<path d="M0 73V72C0 58.7452 10.7452 48 24 48H25L955.029 49.9788C961.412 49.9924 967.537 47.4628 972.051 42.9494L1007.97 7.02944C1012.47 2.52856 1018.58 0 1024.94 0H1375H1376C1389.25 0 1400 10.7452 1400 24V25V555V556C1400 569.255 1389.25 580 1376 580H1375H334.854C328.54 580 322.481 582.488 317.989 586.924L291.511 613.076C287.019 617.512 280.96 620 274.646 620H25H24C10.7452 620 0 609.255 0 596V595V73Z" fill="#D9D9D9"/>
</svg>
