<svg width="349" height="573" viewBox="0 0 349 573" fill="none" xmlns="http://www.w3.org/2000/svg">
<path d="M0 20C0 13.3726 5.37258 8 12 8H133C135.626 8 138.212 7.35353 140.529 6.11765L148.471 1.88235C150.788 0.646469 153.374 0 156 0H194C196.626 0 199.212 0.646469 201.529 1.88235L209.471 6.11765C211.788 7.35353 214.374 8 217 8H337C343.627 8 349 13.3726 349 20V547.5C349 554.127 343.627 559.5 337 559.5H309.848C306.072 559.5 302.417 560.836 299.53 563.271L292.47 569.229C289.583 571.664 285.928 573 282.152 573H174.5H65.8482C62.0716 573 58.4167 571.664 55.5303 569.229L48.4697 563.271C45.5833 560.836 41.9284 559.5 38.1518 559.5H12C5.37258 559.5 0 554.127 0 547.5V20Z" fill="#D9D9D9"/>
</svg>
