<svg width="1400" height="670" viewBox="0 0 1400 670" fill="none" xmlns="http://www.w3.org/2000/svg">
<path d="M0.999286 79V78C0.999286 64.7452 11.7444 54 24.9993 54H25.9814H410.596C414.603 54 418.546 52.9966 422.066 51.0812L510.579 2.9188C514.099 1.00345 518.042 0 522.05 0H880.255C884.202 0 888.088 0.973348 891.568 2.83383L981.993 51.1662C985.474 53.0267 989.36 54 993.306 54H1015.27H1375.02H1376C1389.25 54 1400 64.7452 1400 78V609V610C1400 623.255 1389.25 634 1376 634H1103.36C1096.88 634 1090.67 636.625 1086.15 641.276L1065.31 662.724C1060.79 667.375 1054.58 670 1048.1 670H420.2H373.091C366.485 670 360.171 667.277 355.637 662.473L335.869 641.527C331.335 636.723 325.021 634 318.415 634H25.9814H24.1078C11.4286 634 0.936707 624.137 0.153606 611.482L0 609L0.999286 352.665V79Z" fill="#D9D9D9"/>
</svg>
