<svg width="349" height="562" viewBox="0 0 349 562" fill="none" xmlns="http://www.w3.org/2000/svg">
<path d="M0 42.5C0 35.5964 5.59644 30 12.5 30H230.667C234.129 30 237.497 28.8772 240.267 26.8L271.733 3.2C274.503 1.12284 277.871 0 281.333 0H337.064C343.656 0 349 5.34406 349 11.9363V530C349 536.627 343.627 542 337 542H129.613C125.979 542 122.454 543.237 119.617 545.506L103.383 558.494C100.546 560.763 97.0206 562 93.3875 562H16C7.16344 562 0 554.837 0 546V536.635V44.7611V42.5Z" fill="#D9D9D9"/>
</svg>
